<svg xmlns="http://www.w3.org/2000/svg" width="197.859" height="44.001" viewBox="0 0 197.859 44.001">
  <g id="Group_18" data-name="Group 18" transform="translate(-447.01 225.891)">
    <path id="Path_1" data-name="Path 1" d="M160.65,12.946l-2.075-1.607-4.9-3.8-1.6-1.238-5.4-4.189-.611-.475-.382-.3a6.38,6.38,0,0,0-7.821,0l-.377.293-.612.468-5.4,4.189-1.6,1.245-4.906,3.8L122.9,12.946l-3.531,2.74a6.381,6.381,0,0,0-2.468,5.041V40.609a3,3,0,1,0,6,0V23.673a6.381,6.381,0,0,1,2.472-5.043l4.509-3.5,1.6-1.245,3.3-2.558,2.71-2.1,2.81-2.182a2.411,2.411,0,0,1,2.954,0l2.816,2.183,2.709,2.1-2.709,2.105-4.287,3.328-4.294,3.321-.612.475-4.055,3.148a3.466,3.466,0,0,0-1.34,2.738V40.609a3,3,0,0,0,3,3h.007a3,3,0,0,0,3-3V29.391a3.465,3.465,0,0,1,1.343-2.739l2.951-2.288,2.946,2.288a3.465,3.465,0,0,1,1.34,2.737v11.22a3,3,0,0,0,3,3h.008a3,3,0,0,0,3-3V26.446a3.465,3.465,0,0,0-1.341-2.738l-4.055-3.148,5.4-4.181,1.6-1.245,4.5,3.5a6.38,6.38,0,0,1,2.469,5.041V40.609a3,3,0,0,0,3,3h.008a3,3,0,0,0,3-3V20.73a6.38,6.38,0,0,0-2.472-5.043Z" transform="translate(330.109 -225.498)" fill="#364cea"/>
    <path id="Path_4" data-name="Path 4" d="M12.408-53.558A6.685,6.685,0,0,1,17.29-51.6a6.472,6.472,0,0,1,1.982,4.8,6.472,6.472,0,0,1-1.982,4.8,6.685,6.685,0,0,1-4.882,1.953H8.875v6.605H4.912v-20.1Zm0,9.793a2.771,2.771,0,0,0,2.1-.876,3.025,3.025,0,0,0,.833-2.168,3.012,3.012,0,0,0-.833-2.183,2.793,2.793,0,0,0-2.1-.862H8.875v6.088Zm20.476,10.31-4.049-6.978H25.819v6.978H21.856v-20.1H29.9A6.452,6.452,0,0,1,34.635-51.6a6.418,6.418,0,0,1,1.953,4.71,6.116,6.116,0,0,1-1.063,3.461,6.653,6.653,0,0,1-2.814,2.4l4.451,7.582Zm-7.065-16.4v5.945H29.9a2.523,2.523,0,0,0,1.924-.876,3.011,3.011,0,0,0,.8-2.111,2.96,2.96,0,0,0-.8-2.1,2.541,2.541,0,0,0-1.924-.862Zm30.154,13.77a10.109,10.109,0,0,1-7.409,3.03,10.061,10.061,0,0,1-7.395-3.03,10.1,10.1,0,0,1-3.03-7.424,10.1,10.1,0,0,1,3.03-7.424,10.061,10.061,0,0,1,7.395-3.03,10.109,10.109,0,0,1,7.409,3.03,10.071,10.071,0,0,1,3.044,7.424A10.071,10.071,0,0,1,55.973-36.083Zm-12.033-2.7a6.3,6.3,0,0,0,4.624,1.852,6.3,6.3,0,0,0,4.624-1.852,6.372,6.372,0,0,0,1.867-4.724,6.42,6.42,0,0,0-1.867-4.738,6.279,6.279,0,0,0-4.624-1.867,6.279,6.279,0,0,0-4.624,1.867,6.42,6.42,0,0,0-1.867,4.738A6.372,6.372,0,0,0,43.94-38.782ZM69.3-53.558A6.685,6.685,0,0,1,74.18-51.6a6.472,6.472,0,0,1,1.982,4.8,6.472,6.472,0,0,1-1.982,4.8A6.685,6.685,0,0,1,69.3-40.06H65.765v6.605H61.8v-20.1Zm0,9.793a2.771,2.771,0,0,0,2.1-.876,3.025,3.025,0,0,0,.833-2.168,3.012,3.012,0,0,0-.833-2.183,2.793,2.793,0,0,0-2.1-.862H65.765v6.088Zm13.411,6.519h8.472v3.791H78.746v-20.1H91.037v3.791H82.709v4.279h7.61v3.733h-7.61Zm22.285,3.791-4.049-6.978H97.93v6.978H93.966v-20.1h8.041a6.452,6.452,0,0,1,4.738,1.953A6.418,6.418,0,0,1,108.7-46.9a6.116,6.116,0,0,1-1.063,3.461,6.653,6.653,0,0,1-2.814,2.4l4.451,7.582Zm-7.065-16.4v5.945h4.078a2.523,2.523,0,0,0,1.924-.876,3.011,3.011,0,0,0,.8-2.111,2.96,2.96,0,0,0-.8-2.1,2.541,2.541,0,0,0-1.924-.862Zm26.133-3.7v3.791h-5.428v16.312h-3.963V-49.767h-5.4v-3.791Zm18.121,0L135.291-41.3v7.84h-3.934V-41.3l-6.864-12.263h4.48l4.365,8.386,4.365-8.386Z" transform="translate(502.685 -171.931)" fill="#303030"/>
    <path id="Path_5" data-name="Path 5" d="M10.064-41.286a7.149,7.149,0,0,1,5.39,2.264,7.769,7.769,0,0,1,2.163,5.581,7.769,7.769,0,0,1-2.163,5.581,7.149,7.149,0,0,1-5.39,2.264H3.834V-41.286Zm0,12.73a4.35,4.35,0,0,0,3.317-1.356,4.938,4.938,0,0,0,1.278-3.53,4.938,4.938,0,0,0-1.278-3.53,4.35,4.35,0,0,0-3.317-1.356H6.927v9.772Zm12.842,0h6.612V-25.6h-9.7V-41.286h9.592v2.958h-6.5v3.339h5.939v2.914H22.907ZM42.271-25.6l-.941-2.824H35.076L34.135-25.6H30.8l5.491-15.689h3.833L45.633-25.6Zm-6.208-5.715h4.3l-2.152-6.41ZM50.25-28.556h5.984V-25.6H47.157V-41.286H50.25Zm11.027,0h6.656V-25.6h-10.6v-2.465l6.522-10.265H57.489v-2.958H67.8v2.443Z" transform="translate(503.354 -156.292)" fill="#364cea"/>
  </g>
</svg>
