<svg xmlns="http://www.w3.org/2000/svg" width="28" height="28" viewBox="0 0 28 28">
  <g id="Group_75" data-name="Group 75" transform="translate(-1268 -437)">
    <rect id="Rectangle_46" data-name="Rectangle 46" width="28" height="28" transform="translate(1268 437)" fill="none"/>
    <g id="area" transform="translate(1269.962 438.962)">
      <path id="Shape" d="M23.634,24.255H19.9a.623.623,0,0,1-.622-.622V22.389H4.976v1.244a.623.623,0,0,1-.622.622H.622A.623.623,0,0,1,0,23.633V19.9a.622.622,0,0,1,.622-.621H1.866V4.975H.622A.623.623,0,0,1,0,4.353V.622A.623.623,0,0,1,.622,0H4.354a.623.623,0,0,1,.622.622V1.865h14.3V.622A.623.623,0,0,1,19.9,0h3.732a.623.623,0,0,1,.622.622V4.353a.623.623,0,0,1-.622.622H22.39V19.28h1.244a.622.622,0,0,1,.622.621v3.732A.623.623,0,0,1,23.634,24.255ZM3.11,4.975h0V19.28H4.354a.622.622,0,0,1,.622.621v1.244h14.3V19.9a.622.622,0,0,1,.622-.621h1.244V4.975H19.9a.623.623,0,0,1-.622-.622V3.109H4.976V4.353a.623.623,0,0,1-.622.622Z" transform="translate(0 0)" fill="#899494"/>
    </g>
  </g>
</svg>
