<svg xmlns="http://www.w3.org/2000/svg" width="28" height="28" viewBox="0 0 28 28">
  <g id="Group_73" data-name="Group 73" transform="translate(-1268 -437)">
    <rect id="Rectangle_45" data-name="Rectangle 45" width="28" height="28" transform="translate(1268 437)" fill="none"/>
    <g id="batch" transform="translate(1269.671 438.666)">
      <path id="Path" d="M1382.109,449.329h-.678v-9.041a3.288,3.288,0,0,0-3.288-3.288h-1.233a.411.411,0,0,0-.411.411v2.1a2.055,2.055,0,0,0-1.644,2.014.411.411,0,0,0,.411.411h3.288a.411.411,0,0,0,.411-.411,2.055,2.055,0,0,0-1.644-2.014v-1.685h.822a2.466,2.466,0,0,1,2.466,2.466v9.041h-22.048a.555.555,0,0,0-.555.555v.534a.555.555,0,0,0,.555.555h23.548a.555.555,0,0,0,.555-.555v-.534A.555.555,0,0,0,1382.109,449.329Z" transform="translate(-1358.006 -437)" fill="#899494"/>
      <path id="Path-2" data-name="Path" d="M1381.472,454.965h-21.74a.209.209,0,0,0-.21.209v.008c.16,2.926,1.43,5.955,3.288,6.888a1.644,1.644,0,1,0,2.618.292h10.336a1.6,1.6,0,0,0-.144,1.331,1.644,1.644,0,1,0,2.762-1.644c1.87-.933,3.14-3.962,3.288-6.888A.209.209,0,0,0,1381.472,454.965Z" transform="translate(-1358.274 -440.17)" fill="#899494"/>
    </g>
  </g>
</svg>
