<svg xmlns="http://www.w3.org/2000/svg" width="19.996" height="20.003" viewBox="0 0 19.996 20.003">
  <g id="location" transform="translate(-1268.004 -391)">
    <path id="Path-4" d="M1286.3,405.022a.586.586,0,1,0-.564,1.027c.7.384,1.1.808,1.1,1.166,0,.438-.62,1.115-2.36,1.7a23.542,23.542,0,0,1-12.936,0c-1.74-.593-2.36-1.27-2.36-1.7,0-.358.4-.783,1.1-1.166a.586.586,0,0,0-.564-1.027,2.783,2.783,0,0,0-1.7,2.193c0,.8.547,1.93,3.155,2.815a24.649,24.649,0,0,0,13.686,0c2.607-.889,3.155-2.021,3.155-2.815A2.788,2.788,0,0,0,1286.3,405.022Z" fill="#364cea"/>
    <path id="Path-5" d="M1273.576,408.076a19.038,19.038,0,0,0,8.848,0c1.455-.411,2.193-1.006,2.193-1.768s-.741-1.358-2.193-1.769c-.323-.091-.674-.171-1.048-.239q-.3.526-.638,1.082a11.679,11.679,0,0,1,1.154.228,2.991,2.991,0,0,1,1.542.7,2.991,2.991,0,0,1-1.542.7,16.186,16.186,0,0,1-3.691.419c-.067.005-.133.007-.2.007a1.834,1.834,0,0,1-.2-.007,16.181,16.181,0,0,1-3.691-.419,2.991,2.991,0,0,1-1.543-.7,2.991,2.991,0,0,1,1.543-.7c.353-.09.741-.166,1.154-.228q-.333-.556-.638-1.082c-.37.068-.725.148-1.048.239-1.456.411-2.193,1.006-2.193,1.769S1272.121,407.667,1273.576,408.076Z" fill="#364cea"/>
    <path id="Shape-3" d="M1277.995,406.259h0a1.484,1.484,0,0,1-1.262-.711c-1.907-3.119-4.18-7.229-4.18-9.1a5.447,5.447,0,1,1,10.894,0c0,1.872-2.273,5.983-4.18,9.1a1.484,1.484,0,0,1-1.262.711h-.01Zm.005-12.378a2.193,2.193,0,1,0,2.192,2.192A2.187,2.187,0,0,0,1278,393.881Z" fill="#364cea"/>
  </g>
</svg>
