<svg xmlns="http://www.w3.org/2000/svg" width="25.439" height="25.451" viewBox="0 0 25.439 25.451">
  <path id="Vector" d="M18.058,0H7.394C2.761,0,0,2.761,0,7.394V18.045c0,4.645,2.761,7.406,7.394,7.406H18.045c4.632,0,7.394-2.761,7.394-7.394V7.394C25.451,2.761,22.69,0,18.058,0ZM11.44,19.088a.959.959,0,0,1-.076.369,1,1,0,0,1-.522.522.913.913,0,0,1-.369.076.959.959,0,0,1-.369-.076.987.987,0,0,1-.305-.2L6.045,16.022a.954.954,0,0,1,1.349-1.349L9.519,16.8V6.363a.961.961,0,0,1,.954-.954.972.972,0,0,1,.967.954Zm7.954-8.3a.952.952,0,0,1-1.349,0L15.92,8.666V19.088a.954.954,0,0,1-1.909,0V6.363a.959.959,0,0,1,.076-.369,1,1,0,0,1,.522-.522.9.9,0,0,1,.725,0,.987.987,0,0,1,.305.2L19.394,9.43A.976.976,0,0,1,19.394,10.791Z" fill="#364cea"/>
</svg>
